<?xml version="1.0" standalone="no"?>
<!DOCTYPE svg PUBLIC "-//W3C//DTD SVG 20010904//EN"
 "http://www.w3.org/TR/2001/REC-SVG-20010904/DTD/svg10.dtd">
<svg version="1.0" xmlns="http://www.w3.org/2000/svg"
 width="500.000000pt" height="500.000000pt" viewBox="0 0 500.000000 500.000000"
 preserveAspectRatio="xMidYMid meet">

<g transform="translate(0.000000,500.000000) scale(0.100000,-0.100000)"
fill="#000000" stroke="none">
<path d="M0 2500 l0 -2500 2500 0 2500 0 0 2500 0 2500 -2500 0 -2500 0 0
-2500z m2586 889 c35 -32 54 -71 54 -109 0 -36 -34 -108 -55 -117 -11 -4 -15
-24 -15 -79 l0 -74 146 0 c174 0 214 -10 269 -65 45 -44 65 -97 65 -169 l0
-46 36 0 c56 0 94 -44 94 -109 0 -65 -28 -100 -86 -108 l-42 -5 -4 -62 c-5
-78 -33 -132 -87 -171 l-43 -30 -423 0 -423 0 -39 31 c-58 47 -83 98 -83 170
l0 61 -42 6 c-53 7 -88 41 -95 94 -9 70 37 123 107 123 30 0 30 0 30 60 0 72
22 122 74 168 50 44 91 52 259 52 l147 0 0 67 c0 62 -3 70 -31 99 -25 26 -33
44 -37 83 -6 65 11 105 57 137 48 33 128 30 167 -7z m-668 -1551 l3 -38 -150
0 -151 0 0 -155 0 -155 -40 0 -40 0 0 157 0 157 37 38 38 38 150 -2 150 -3 3
-37z m454 5 l38 -37 0 -120 0 -120 -37 -38 -37 -38 -135 0 -135 0 -38 37 -38
37 0 120 0 120 37 38 37 38 135 0 135 0 38 -37z m560 0 l38 -37 0 -158 0 -158
-45 0 -45 0 0 155 0 155 -55 0 -55 0 0 -105 0 -105 -40 0 -40 0 0 105 0 105
-60 0 -60 0 0 -155 0 -155 -40 0 -40 0 0 157 0 157 37 38 37 38 165 0 165 0
38 -37z m538 -3 l0 -40 -170 0 -170 0 0 -35 0 -34 123 -3 122 -3 3 -42 3 -43
-125 0 -126 0 0 -35 0 -35 168 -2 167 -3 3 -37 3 -38 -177 0 -178 0 -33 32
-33 32 0 125 0 125 37 38 37 38 173 0 173 0 0 -40z"/>
<path d="M2089 2905 c-14 -8 -35 -27 -45 -42 -17 -25 -19 -49 -19 -243 0 -245
3 -256 78 -291 39 -17 70 -19 395 -19 387 0 396 1 445 59 l27 33 0 220 0 220
-39 39 -39 39 -388 0 c-316 -1 -394 -3 -415 -15z m240 -206 c59 -58 33 -165
-44 -185 -41 -10 -87 8 -112 45 -34 50 -30 92 11 135 28 30 40 36 74 36 32 0
47 -7 71 -31z m480 2 c60 -56 34 -167 -44 -187 -41 -10 -87 8 -112 45 -34 50
-30 92 11 135 45 48 99 50 145 7z"/>
<path d="M2080 1685 l0 -115 125 0 125 0 0 115 0 115 -125 0 -125 0 0 -115z"/>
</g>
</svg>
